<svg id="SvgjsSvg1006" width="5000px" height="2684.2042257736275px" xmlns="http://www.w3.org/2000/svg" version="1.1" xmlns:xlink="http://www.w3.org/1999/xlink" xmlns:svgjs="http://svgjs.com/svgjs" viewBox="0 0 261.046875 140.140625"><defs id="SvgjsDefs1007"></defs><g id="SvgjsG1009" transform="rotate(0 130.515625 17.9921875)"><svg width="120" viewBox="0 0 90 26.997005462646484" xmlns="http://www.w3.org/2000/svg" version="1.1" xmlns:xlink="http://www.w3.org/1999/xlink" xmlns:svgjs="http://svgjs.com/svgjs" preserveAspectRatio="none" height="35.984375" x="70.515625" y="0"><g><svg data-color="1" xmlns="http://www.w3.org/2000/svg" xmlns:xlink="http://www.w3.org/1999/xlink" version="1.1" x="0px" y="0px" viewBox="5 36.50199890136719 90 26.997005462646484" enable-background="new 0 0 100 100" xml:space="preserve" width="90" height="26.997005462646484" fill="#edbe00"><path d="M94.987,46.723c-0.007-1.023-0.018-1.96-0.027-2.757c-0.01-0.796-0.02-1.452-0.027-1.922  c-0.008-0.468-0.014-0.75-0.014-0.796c0-0.001,0-0.002,0-0.003s0-0.002,0-0.003v-0.001c0-0.006,0-0.012-0.001-0.018  c0-0.006,0-0.012,0-0.018c0-0.007-0.001-0.013-0.001-0.019c-0.001-0.006-0.001-0.012-0.001-0.018  c-0.024-0.462-0.211-0.898-0.524-1.296c-0.312-0.396-0.755-0.751-1.293-1.049s-1.174-0.537-1.876-0.703  c-0.701-0.165-1.47-0.257-2.275-0.257h-0.4v3.227c0.376,0,0.68,0.304,0.68,0.68v3.735c0,0.375-0.304,0.68-0.68,0.68h-0.679  c-0.375,0-0.68-0.305-0.68-0.68v-3.735c0-0.376,0.305-0.68,0.68-0.68v-3.227h-0.399c-0.806,0-1.574,0.092-2.276,0.257  c-0.702,0.166-1.337,0.405-1.875,0.703c-0.539,0.298-0.98,0.653-1.294,1.049c-0.313,0.397-0.499,0.834-0.523,1.296  c-0.001,0.006-0.001,0.012-0.002,0.018c0,0.006,0,0.012,0,0.019c-0.001,0.006-0.001,0.012-0.001,0.018s0,0.012,0,0.018v0.001  c0,0.001,0,0.002,0,0.003s0,0.002,0,0.003c-0.001,0.046-0.006,0.328-0.015,0.796c-0.007,0.47-0.018,1.126-0.027,1.922  c-0.01,0.797-0.02,1.733-0.027,2.757c-0.007,1.024-0.013,2.136-0.013,3.277s0.006,2.253,0.013,3.278  c0.008,1.022,0.018,1.959,0.027,2.757c0.01,0.796,0.021,1.453,0.027,1.923c0.009,0.468,0.014,0.75,0.015,0.797  c0,0.001,0,0.002,0,0.003s0,0.002,0,0.003l0,0c0,0.007,0,0.012,0,0.019c0,0.006,0,0.012,0.001,0.019c0,0.005,0,0.012,0,0.018  c0.001,0.006,0.001,0.012,0.002,0.018c0.024,0.461,0.21,0.898,0.523,1.296c0.313,0.396,0.755,0.751,1.294,1.049  c0.538,0.298,1.173,0.537,1.875,0.702c0.702,0.166,1.471,0.257,2.276,0.257h1.479c0.806,0,1.574-0.091,2.275-0.257  c0.702-0.165,1.338-0.404,1.876-0.702s0.98-0.653,1.293-1.049c0.313-0.397,0.499-0.835,0.524-1.296c0-0.006,0-0.012,0.001-0.018  c0-0.006,0.001-0.013,0.001-0.018c0-0.007,0-0.013,0-0.019c0.001-0.007,0.001-0.012,0.001-0.019l0,0c0-0.001,0-0.002,0-0.003  s0-0.002,0-0.003c0-0.047,0.006-0.329,0.014-0.797c0.008-0.47,0.018-1.127,0.027-1.923c0.01-0.798,0.021-1.734,0.027-2.757  C94.995,52.253,95,51.142,95,50S94.995,47.747,94.987,46.723z"></path><path d="M73.943,36.502H6.698C5.761,36.502,5,37.263,5,38.201v23.6c0,0.938,0.761,1.698,1.698,1.698h67.245  c0.938,0,1.698-0.76,1.698-1.698v-23.6C75.642,37.263,74.882,36.502,73.943,36.502z M66.359,38.346c0-0.268,0.218-0.484,0.485-0.484  h2.668c0.268,0,0.484,0.217,0.484,0.484v0.971c0,0.268-0.217,0.484-0.484,0.484h-2.668c-0.268,0-0.485-0.217-0.485-0.484V38.346z   M55.114,50.343v2.184c0,0.401-0.325,0.728-0.728,0.728h-2.182c-0.402,0-0.729-0.326-0.729-0.728v-2.184  c0-0.401,0.326-0.728,0.729-0.728h2.182C54.789,49.615,55.114,49.941,55.114,50.343z M54.631,48.082v-2.183  c0-0.402,0.326-0.728,0.728-0.728h2.183c0.401,0,0.728,0.325,0.728,0.728v2.183c0,0.402-0.326,0.728-0.728,0.728h-2.183  C54.957,48.81,54.631,48.484,54.631,48.082z M54.801,54.786c0-0.401,0.326-0.728,0.729-0.728h2.183c0.402,0,0.728,0.326,0.728,0.728  v2.184c0,0.401-0.325,0.728-0.728,0.728h-2.183c-0.402,0-0.729-0.326-0.729-0.728V54.786z M56.823,53.254  c-0.402,0-0.728-0.326-0.728-0.728v-2.184c0-0.401,0.325-0.728,0.728-0.728h2.183c0.402,0,0.728,0.326,0.728,0.728v2.184  c0,0.401-0.325,0.728-0.728,0.728H56.823z M59.222,48.082v-2.183c0-0.402,0.326-0.728,0.728-0.728h2.183  c0.403,0,0.729,0.325,0.729,0.728v2.183c0,0.402-0.325,0.728-0.729,0.728h-2.183C59.548,48.81,59.222,48.484,59.222,48.082z   M59.527,54.786c0-0.401,0.325-0.728,0.728-0.728h2.183c0.402,0,0.728,0.326,0.728,0.728v2.184c0,0.401-0.325,0.728-0.728,0.728  h-2.183c-0.402,0-0.728-0.326-0.728-0.728V54.786z M61.442,53.254c-0.402,0-0.728-0.326-0.728-0.728v-2.184  c0-0.401,0.325-0.728,0.728-0.728h2.183c0.402,0,0.728,0.326,0.728,0.728v2.184c0,0.401-0.325,0.728-0.728,0.728H61.442z   M64.121,54.786c0-0.401,0.326-0.728,0.728-0.728h8.247c0.401,0,0.728,0.326,0.728,0.728v2.184c0,0.401-0.326,0.728-0.728,0.728  h-8.247c-0.401,0-0.728-0.326-0.728-0.728V54.786z M68.972,52.526c0,0.401-0.325,0.728-0.728,0.728h-2.183  c-0.401,0-0.729-0.326-0.729-0.728v-2.184c0-0.401,0.327-0.728,0.729-0.728h2.183c0.402,0,0.728,0.326,0.728,0.728V52.526z   M67.451,48.082c0,0.402-0.326,0.728-0.729,0.728H64.54c-0.401,0-0.728-0.325-0.728-0.728v-2.183c0-0.402,0.326-0.728,0.728-0.728  h2.183c0.402,0,0.729,0.325,0.729,0.728V48.082z M63.758,43.639v-2.183c0-0.402,0.325-0.728,0.728-0.728h2.183  c0.401,0,0.728,0.325,0.728,0.728v2.183c0,0.402-0.326,0.728-0.728,0.728h-2.183C64.083,44.366,63.758,44.041,63.758,43.639z   M62.073,38.346c0-0.268,0.218-0.484,0.485-0.484h2.668c0.268,0,0.485,0.217,0.485,0.484v0.971c0,0.268-0.218,0.484-0.485,0.484  h-2.668c-0.268,0-0.485-0.217-0.485-0.484V38.346z M62.612,41.456v2.183c0,0.402-0.325,0.728-0.728,0.728h-2.183  c-0.402,0-0.728-0.325-0.728-0.728v-2.183c0-0.402,0.325-0.728,0.728-0.728h2.183C62.287,40.729,62.612,41.054,62.612,41.456z   M57.788,38.346c0-0.268,0.217-0.484,0.485-0.484h2.668c0.268,0,0.484,0.217,0.484,0.484v0.971c0,0.268-0.217,0.484-0.484,0.484  h-2.668c-0.269,0-0.485-0.217-0.485-0.484V38.346z M57.829,41.456v2.183c0,0.402-0.326,0.728-0.728,0.728h-2.183  c-0.402,0-0.728-0.325-0.728-0.728v-2.183c0-0.402,0.325-0.728,0.728-0.728h2.183C57.503,40.729,57.829,41.054,57.829,41.456z   M53.502,38.346c0-0.268,0.218-0.484,0.485-0.484h2.668c0.269,0,0.484,0.217,0.484,0.484v0.971c0,0.268-0.216,0.484-0.484,0.484  h-2.668c-0.268,0-0.485-0.217-0.485-0.484V38.346z M53.678,45.899v2.183c0,0.402-0.326,0.728-0.728,0.728h-2.183  c-0.402,0-0.729-0.325-0.729-0.728v-2.183c0-0.402,0.326-0.728,0.729-0.728h2.183C53.352,45.172,53.678,45.497,53.678,45.899z   M14.522,50.343c0-0.401,0.325-0.728,0.728-0.728h2.184c0.4,0,0.727,0.326,0.727,0.728v2.184c0,0.401-0.326,0.728-0.727,0.728H15.25  c-0.402,0-0.728-0.326-0.728-0.728V50.343z M14.037,48.81c-0.402,0-0.728-0.325-0.728-0.728v-2.183c0-0.402,0.325-0.728,0.728-0.728  h2.184c0.401,0,0.727,0.325,0.727,0.728v2.183c0,0.402-0.325,0.728-0.727,0.728H14.037z M17.9,48.082v-2.183  c0-0.402,0.326-0.728,0.729-0.728h2.183c0.401,0,0.728,0.325,0.728,0.728v2.183c0,0.402-0.326,0.728-0.728,0.728h-2.183  C18.227,48.81,17.9,48.484,17.9,48.082z M20.709,43.639v-2.183c0-0.402,0.325-0.728,0.727-0.728h2.184  c0.402,0,0.728,0.325,0.728,0.728v2.183c0,0.402-0.325,0.728-0.728,0.728h-2.184C21.034,44.366,20.709,44.041,20.709,43.639z   M19.142,50.343c0-0.401,0.325-0.728,0.728-0.728h2.184c0.401,0,0.727,0.326,0.727,0.728v2.184c0,0.401-0.325,0.728-0.727,0.728  h-2.184c-0.402,0-0.728-0.326-0.728-0.728V50.343z M22.492,48.082v-2.183c0-0.402,0.326-0.728,0.728-0.728h2.183  c0.402,0,0.728,0.325,0.728,0.728v2.183c0,0.402-0.325,0.728-0.728,0.728H23.22C22.818,48.81,22.492,48.484,22.492,48.082z   M33.913,43.639c0,0.402-0.325,0.728-0.728,0.728h-2.183c-0.402,0-0.728-0.325-0.728-0.728v-2.183c0-0.402,0.325-0.728,0.728-0.728  h2.183c0.402,0,0.728,0.325,0.728,0.728V43.639z M34.584,45.172c0.402,0,0.729,0.325,0.729,0.728v2.183  c0,0.402-0.326,0.728-0.729,0.728h-2.182c-0.402,0-0.728-0.325-0.728-0.728v-2.183c0-0.402,0.325-0.728,0.728-0.728H34.584z   M30.721,45.899v2.183c0,0.402-0.324,0.728-0.727,0.728h-2.184c-0.401,0-0.727-0.325-0.727-0.728v-2.183  c0-0.402,0.325-0.728,0.727-0.728h2.184C30.396,45.172,30.721,45.497,30.721,45.899z M29.13,43.639c0,0.402-0.325,0.728-0.728,0.728  h-2.184c-0.401,0-0.727-0.325-0.727-0.728v-2.183c0-0.402,0.325-0.728,0.727-0.728h2.184c0.402,0,0.728,0.325,0.728,0.728V43.639z   M23.762,50.343c0-0.401,0.325-0.728,0.727-0.728h2.184c0.401,0,0.727,0.326,0.727,0.728v2.184c0,0.401-0.325,0.728-0.727,0.728  h-2.184c-0.401,0-0.727-0.326-0.727-0.728V50.343z M26.444,54.786c0-0.401,0.325-0.728,0.728-0.728h2.184  c0.401,0,0.727,0.326,0.727,0.728v2.184c0,0.401-0.325,0.728-0.727,0.728h-2.184c-0.402,0-0.728-0.326-0.728-0.728V54.786z   M29.107,53.254c-0.401,0-0.728-0.326-0.728-0.728v-2.184c0-0.401,0.326-0.728,0.728-0.728h2.184c0.401,0,0.727,0.326,0.727,0.728  v2.184c0,0.401-0.325,0.728-0.727,0.728H29.107z M31.17,54.786c0-0.401,0.326-0.728,0.729-0.728h2.183  c0.401,0,0.728,0.326,0.728,0.728v2.184c0,0.401-0.326,0.728-0.728,0.728h-2.183c-0.402,0-0.729-0.326-0.729-0.728V54.786z   M33.727,53.254c-0.401,0-0.727-0.326-0.727-0.728v-2.184c0-0.401,0.325-0.728,0.727-0.728h2.184c0.402,0,0.727,0.326,0.727,0.728  v2.184c0,0.401-0.324,0.728-0.727,0.728H33.727z M36.266,48.082v-2.183c0-0.402,0.326-0.728,0.728-0.728h2.183  c0.402,0,0.729,0.325,0.729,0.728v2.183c0,0.402-0.326,0.728-0.729,0.728h-2.183C36.592,48.81,36.266,48.484,36.266,48.082z   M35.896,54.786c0-0.401,0.326-0.728,0.728-0.728h2.183c0.402,0,0.729,0.326,0.729,0.728v2.184c0,0.401-0.326,0.728-0.729,0.728  h-2.183c-0.401,0-0.728-0.326-0.728-0.728V54.786z M38.346,53.254c-0.401,0-0.728-0.326-0.728-0.728v-2.184  c0-0.401,0.326-0.728,0.728-0.728h2.184c0.401,0,0.727,0.326,0.727,0.728v2.184c0,0.401-0.325,0.728-0.727,0.728H38.346z   M40.623,54.786c0-0.401,0.326-0.728,0.728-0.728h2.183c0.402,0,0.728,0.326,0.728,0.728v2.184c0,0.401-0.325,0.728-0.728,0.728  h-2.183c-0.401,0-0.728-0.326-0.728-0.728V54.786z M42.965,53.254c-0.401,0-0.727-0.326-0.727-0.728v-2.184  c0-0.401,0.325-0.728,0.727-0.728h2.184c0.402,0,0.728,0.326,0.728,0.728v2.184c0,0.401-0.325,0.728-0.728,0.728H42.965z   M45.35,54.786c0-0.401,0.325-0.728,0.727-0.728h2.184c0.401,0,0.727,0.326,0.727,0.728v2.184c0,0.401-0.325,0.728-0.727,0.728  h-2.184c-0.401,0-0.727-0.326-0.727-0.728V54.786z M47.584,53.254c-0.401,0-0.727-0.326-0.727-0.728v-2.184  c0-0.401,0.325-0.728,0.727-0.728h2.184c0.402,0,0.728,0.326,0.728,0.728v2.184c0,0.401-0.325,0.728-0.728,0.728H47.584z   M53.046,43.639c0,0.402-0.325,0.728-0.728,0.728h-2.183c-0.402,0-0.728-0.325-0.728-0.728v-2.183c0-0.402,0.325-0.728,0.728-0.728  h2.183c0.402,0,0.728,0.325,0.728,0.728V43.639z M49.217,38.346c0-0.268,0.217-0.484,0.484-0.484h2.668  c0.268,0,0.485,0.217,0.485,0.484v0.971c0,0.268-0.218,0.484-0.485,0.484h-2.668c-0.268,0-0.484-0.217-0.484-0.484V38.346z   M49.086,45.899v2.183c0,0.402-0.325,0.728-0.728,0.728h-2.183c-0.402,0-0.729-0.325-0.729-0.728v-2.183  c0-0.402,0.326-0.728,0.729-0.728h2.183C48.761,45.172,49.086,45.497,49.086,45.899z M44.931,38.346  c0-0.268,0.218-0.484,0.485-0.484h2.668c0.268,0,0.484,0.217,0.484,0.484v0.971c0,0.268-0.217,0.484-0.484,0.484h-2.668  c-0.268,0-0.485-0.217-0.485-0.484V38.346z M44.625,41.456c0-0.402,0.326-0.728,0.727-0.728h2.184c0.402,0,0.728,0.325,0.728,0.728  v2.183c0,0.402-0.325,0.728-0.728,0.728h-2.184c-0.4,0-0.727-0.325-0.727-0.728V41.456z M44.495,48.082  c0,0.402-0.326,0.728-0.728,0.728h-2.184c-0.401,0-0.727-0.325-0.727-0.728v-2.183c0-0.402,0.325-0.728,0.727-0.728h2.184  c0.401,0,0.728,0.325,0.728,0.728V48.082z M40.645,38.346c0-0.268,0.218-0.484,0.486-0.484h2.667c0.269,0,0.485,0.217,0.485,0.484  v0.971c0,0.268-0.217,0.484-0.485,0.484h-2.667c-0.269,0-0.486-0.217-0.486-0.484V38.346z M40.569,40.729h2.183  c0.402,0,0.728,0.325,0.728,0.728v2.183c0,0.402-0.325,0.728-0.728,0.728h-2.183c-0.402,0-0.728-0.325-0.728-0.728v-2.183  C39.842,41.054,40.167,40.729,40.569,40.729z M36.359,38.346c0-0.268,0.217-0.484,0.484-0.484h2.668  c0.269,0,0.486,0.217,0.486,0.484v0.971c0,0.268-0.218,0.484-0.486,0.484h-2.668c-0.268,0-0.484-0.217-0.484-0.484V38.346z   M37.969,40.729c0.402,0,0.728,0.325,0.728,0.728v2.183c0,0.402-0.325,0.728-0.728,0.728h-2.183c-0.401,0-0.728-0.325-0.728-0.728  v-2.183c0-0.402,0.326-0.728,0.728-0.728H37.969z M32.073,38.346c0-0.268,0.218-0.484,0.485-0.484h2.668  c0.268,0,0.484,0.217,0.484,0.484v0.971c0,0.268-0.217,0.484-0.484,0.484h-2.668c-0.268,0-0.485-0.217-0.485-0.484V38.346z   M27.787,38.346c0-0.268,0.218-0.484,0.486-0.484h2.668c0.268,0,0.484,0.217,0.484,0.484v0.971c0,0.268-0.217,0.484-0.484,0.484  h-2.668c-0.269,0-0.486-0.217-0.486-0.484V38.346z M23.502,38.346c0-0.268,0.217-0.484,0.484-0.484h2.668  c0.269,0,0.486,0.217,0.486,0.484v0.971c0,0.268-0.218,0.484-0.486,0.484h-2.668c-0.268,0-0.484-0.217-0.484-0.484V38.346z   M19.217,38.346c0-0.268,0.217-0.484,0.484-0.484h2.668c0.268,0,0.485,0.217,0.485,0.484v0.971c0,0.268-0.218,0.484-0.485,0.484  h-2.668c-0.268,0-0.484-0.217-0.484-0.484V38.346z M19.563,41.456v2.183c0,0.402-0.325,0.728-0.728,0.728h-2.184  c-0.401,0-0.727-0.325-0.727-0.728v-2.183c0-0.402,0.325-0.728,0.727-0.728h2.184C19.238,40.729,19.563,41.054,19.563,41.456z   M14.93,38.346c0-0.268,0.219-0.484,0.486-0.484h2.668c0.268,0,0.484,0.217,0.484,0.484v0.971c0,0.268-0.217,0.484-0.484,0.484  h-2.668c-0.268,0-0.486-0.217-0.486-0.484V38.346z M14.78,41.456v2.183c0,0.402-0.325,0.728-0.728,0.728h-2.184  c-0.401,0-0.727-0.325-0.727-0.728v-2.183c0-0.402,0.325-0.728,0.727-0.728h2.184C14.455,40.729,14.78,41.054,14.78,41.456z   M10.645,38.346c0-0.268,0.217-0.484,0.485-0.484h2.668c0.268,0,0.485,0.217,0.485,0.484v0.971c0,0.268-0.218,0.484-0.485,0.484  H11.13c-0.269,0-0.485-0.217-0.485-0.484V38.346z M6.359,38.346c0-0.268,0.217-0.484,0.484-0.484h2.668  c0.268,0,0.485,0.217,0.485,0.484v0.971c0,0.268-0.218,0.484-0.485,0.484H6.844c-0.268,0-0.484-0.217-0.484-0.484V38.346z   M6.359,41.456c0-0.402,0.325-0.728,0.727-0.728H9.27c0.402,0,0.728,0.325,0.728,0.728v2.183c0,0.402-0.325,0.728-0.728,0.728H7.086  c-0.401,0-0.727-0.325-0.727-0.728V41.456z M6.359,45.899c0-0.402,0.325-0.728,0.727-0.728h4.609c0.401,0,0.727,0.325,0.727,0.728  v2.183c0,0.402-0.325,0.728-0.727,0.728H7.086c-0.401,0-0.727-0.325-0.727-0.728V45.899z M6.359,50.343  c0-0.401,0.325-0.728,0.727-0.728h5.822c0.401,0,0.727,0.326,0.727,0.728v2.184c0,0.401-0.325,0.728-0.727,0.728H7.086  c-0.401,0-0.727-0.326-0.727-0.728V50.343z M9.997,61.413c0,0.402-0.325,0.728-0.728,0.728H7.087c-0.402,0-0.728-0.325-0.728-0.728  V59.23c0-0.402,0.325-0.728,0.728-0.728H9.27c0.402,0,0.728,0.325,0.728,0.728V61.413z M7.086,57.697  c-0.401,0-0.727-0.326-0.727-0.728v-2.184c0-0.401,0.325-0.728,0.727-0.728h3.396c0.401,0,0.728,0.326,0.728,0.728v2.184  c0,0.401-0.326,0.728-0.728,0.728H7.086z M14.632,61.413c0,0.402-0.326,0.728-0.728,0.728h-2.184c-0.401,0-0.727-0.325-0.727-0.728  V59.23c0-0.402,0.325-0.728,0.727-0.728h2.184c0.401,0,0.728,0.325,0.728,0.728V61.413z M12.994,57.697  c-0.402,0-0.729-0.326-0.729-0.728v-2.184c0-0.401,0.326-0.728,0.729-0.728h2.183c0.401,0,0.728,0.326,0.728,0.728v2.184  c0,0.401-0.326,0.728-0.728,0.728H12.994z M19.266,61.413c0,0.402-0.324,0.728-0.727,0.728h-2.184c-0.401,0-0.727-0.325-0.727-0.728  V59.23c0-0.402,0.325-0.728,0.727-0.728h2.184c0.402,0,0.727,0.325,0.727,0.728V61.413z M17.72,57.697  c-0.401,0-0.728-0.326-0.728-0.728v-2.184c0-0.401,0.326-0.728,0.728-0.728h2.183c0.402,0,0.729,0.326,0.729,0.728v2.184  c0,0.401-0.326,0.728-0.729,0.728H17.72z M24.992,61.413c0,0.402-0.326,0.728-0.727,0.728h-3.396c-0.402,0-0.728-0.325-0.728-0.728  V59.23c0-0.402,0.325-0.728,0.728-0.728h3.396c0.4,0,0.727,0.325,0.727,0.728V61.413z M25.356,56.97  c0,0.401-0.325,0.728-0.728,0.728h-2.184c-0.401,0-0.727-0.326-0.727-0.728v-2.184c0-0.401,0.325-0.728,0.727-0.728h2.184  c0.402,0,0.728,0.326,0.728,0.728V56.97z M50.37,61.413c0,0.402-0.326,0.728-0.728,0.728h-22.8c-0.401,0-0.728-0.325-0.728-0.728  V59.23c0-0.402,0.326-0.728,0.728-0.728h22.8c0.401,0,0.728,0.325,0.728,0.728V61.413z M50.074,56.97v-2.184  c0-0.401,0.326-0.728,0.729-0.728h2.183c0.402,0,0.728,0.326,0.728,0.728v2.184c0,0.401-0.325,0.728-0.728,0.728h-2.183  C50.4,57.697,50.074,57.371,50.074,56.97z M56.374,61.413c0,0.402-0.326,0.728-0.728,0.728h-3.396c-0.402,0-0.728-0.325-0.728-0.728  V59.23c0-0.402,0.325-0.728,0.728-0.728h3.396c0.401,0,0.728,0.325,0.728,0.728V61.413z M60.804,61.413  c0,0.402-0.325,0.728-0.727,0.728h-2.184c-0.402,0-0.728-0.325-0.728-0.728V59.23c0-0.402,0.325-0.728,0.728-0.728h2.184  c0.401,0,0.727,0.325,0.727,0.728V61.413z M65.47,61.656c0,0.268-0.218,0.484-0.485,0.484h-2.668c-0.268,0-0.485-0.217-0.485-0.484  v-0.971c0-0.269,0.218-0.485,0.485-0.485h2.668c0.268,0,0.485,0.217,0.485,0.485V61.656z M69.693,61.413  c0,0.402-0.326,0.728-0.729,0.728h-2.183c-0.401,0-0.728-0.325-0.728-0.728V59.23c0-0.402,0.326-0.728,0.728-0.728h2.183  c0.402,0,0.729,0.325,0.729,0.728V61.413z M73.906,61.656c0,0.268-0.216,0.484-0.484,0.484h-2.668c-0.268,0-0.485-0.217-0.485-0.484  v-0.971c0-0.269,0.218-0.485,0.485-0.485h2.668c0.269,0,0.484,0.217,0.484,0.485V61.656z M74.242,52.526  c0,0.401-0.325,0.728-0.728,0.728h-2.519c-0.401,0-0.728-0.326-0.728-0.728V48.81h-0.569c-0.401,0-0.728-0.325-0.728-0.728v-2.183  c0-0.402,0.326-0.728,0.728-0.728h1.297h0.531h1.987c0.402,0,0.728,0.325,0.728,0.728V52.526z M74.242,43.639  c0,0.402-0.326,0.728-0.728,0.728h-4.608c-0.402,0-0.728-0.325-0.728-0.728v-2.183c0-0.402,0.325-0.728,0.728-0.728h4.608  c0.401,0,0.728,0.325,0.728,0.728V43.639z M74.283,39.316c0,0.268-0.217,0.484-0.484,0.484H71.13c-0.268,0-0.484-0.217-0.484-0.484  v-0.971c0-0.268,0.217-0.484,0.484-0.484h2.669c0.268,0,0.484,0.217,0.484,0.484V39.316z"></path></svg></g><defs id="SvgjsDefs1008"></defs></svg></g><g id="SvgjsG1011" transform="rotate(0 130.5234375 85.46875)"><svg xmlns="http://www.w3.org/2000/svg" xmlns:xlink="http://www.w3.org/1999/xlink" width="261.046875" viewBox="2.619999885559082 8.600000381469727 261.0500183105469 32.970001220703125" overflow="visible" style="overflow: visible;" transform="" version="1.1" xmlns:svgjs="http://svgjs.com/svgjs" preserveAspectRatio="none" height="32.96875" x="0" y="68.984375" fill="#000000" stroke="none"><path stroke="none" fill="#edbe00" d="M27.81 29.21L27.81 30.09L27.81 30.09Q27.81 30.94 27.52 31.90L27.52 31.90L27.52 31.90Q27.23 32.87 26.57 33.70L26.57 33.70L26.57 33.70Q25.91 34.52 24.86 35.08L24.86 35.08L24.86 35.08Q23.80 35.63 22.27 35.63L22.27 35.63L4.92 35.63L4.92 35.63Q4.43 35.63 4.01 35.46L4.01 35.46L4.01 35.46Q3.59 35.28 3.28 34.97L3.28 34.97L3.28 34.97Q2.97 34.66 2.79 34.24L2.79 34.24L2.79 34.24Q2.62 33.82 2.62 33.33L2.62 33.33L2.62 12.73L2.62 12.73Q2.62 12.25 2.79 11.83L2.79 11.83L2.79 11.83Q2.97 11.41 3.28 11.09L3.28 11.09L3.28 11.09Q3.59 10.78 4.01 10.60L4.01 10.60L4.01 10.60Q4.43 10.42 4.92 10.42L4.92 10.42L20.21 10.42L20.21 10.42Q21.06 10.42 22.03 10.72L22.03 10.72L22.03 10.72Q22.99 11.02 23.83 11.68L23.83 11.68L23.83 11.68Q24.66 12.34 25.22 13.39L25.22 13.39L25.22 13.39Q25.77 14.45 25.77 15.98L25.77 15.98L25.77 16.84L25.77 16.84Q25.77 18.05 25.37 19.45L25.37 19.45L25.37 19.45Q24.96 20.85 24.06 22.10L24.06 22.10L24.06 22.10Q24.84 22.57 25.51 23.24L25.51 23.24L25.51 23.24Q26.19 23.91 26.70 24.79L26.70 24.79L26.70 24.79Q27.21 25.66 27.51 26.77L27.51 26.77L27.51 26.77Q27.81 27.88 27.81 29.21L27.81 29.21ZM23.24 30.06L23.24 29.21L23.24 29.21Q23.24 28.32 22.96 27.61L22.96 27.61L22.96 27.61Q22.68 26.89 22.17 26.38L22.17 26.38L22.17 26.38Q21.66 25.88 20.94 25.60L20.94 25.60L20.94 25.60Q20.21 25.33 19.32 25.33L19.32 25.33L9.02 25.33L9.02 20.72L17.26 20.72L17.26 20.72Q18.16 20.72 18.88 20.45L18.88 20.45L18.88 20.45Q19.60 20.18 20.11 19.67L20.11 19.67L20.11 19.67Q20.62 19.16 20.89 18.45L20.89 18.45L20.89 18.45Q21.16 17.74 21.16 16.84L21.16 16.84L21.16 15.98L21.16 15.98Q21.16 14.99 20.21 14.99L20.21 14.99L7.19 14.99L7.19 31.06L22.27 31.06L22.27 31.06Q22.39 31.06 22.57 31.04L22.57 31.04L22.57 31.04Q22.75 31.03 22.89 30.94L22.89 30.94L22.89 30.94Q23.03 30.85 23.13 30.64L23.13 30.64L23.13 30.64Q23.24 30.43 23.24 30.06L23.24 30.06ZM36.39 10.42L36.39 20.72L52.44 20.72L52.44 10.42L57.01 10.42L57.01 35.63L52.44 35.63L52.44 25.33L36.39 25.33L36.39 35.63L31.82 35.63L31.82 10.42L36.39 10.42ZM87.50 20.97L87.50 25.08L87.50 25.08Q87.50 27.39 86.70 29.32L86.70 29.32L86.70 29.32Q85.90 31.25 84.50 32.65L84.50 32.65L84.50 32.65Q83.09 34.05 81.16 34.84L81.16 34.84L81.16 34.84Q79.22 35.63 76.96 35.63L76.96 35.63L64.62 35.63L64.62 35.63Q64.13 35.63 63.70 35.46L63.70 35.46L63.70 35.46Q63.28 35.28 62.97 34.97L62.97 34.97L62.97 34.97Q62.67 34.66 62.49 34.24L62.49 34.24L62.49 34.24Q62.31 33.82 62.31 33.33L62.31 33.33L62.31 12.73L62.31 12.73Q62.31 12.25 62.49 11.83L62.49 11.83L62.49 11.83Q62.67 11.41 62.97 11.09L62.97 11.09L62.97 11.09Q63.28 10.78 63.70 10.60L63.70 10.60L63.70 10.60Q64.13 10.42 64.62 10.42L64.62 10.42L76.96 10.42L76.96 10.42Q79.22 10.42 81.16 11.21L81.16 11.21L81.16 11.21Q83.09 12.01 84.50 13.40L84.50 13.40L84.50 13.40Q85.90 14.80 86.70 16.74L86.70 16.74L86.70 16.74Q87.50 18.69 87.50 20.97L87.50 20.97ZM82.93 25.08L82.93 20.97L82.93 20.97Q82.93 19.63 82.50 18.53L82.50 18.53L82.50 18.53Q82.07 17.42 81.28 16.64L81.28 16.64L81.28 16.64Q80.49 15.86 79.39 15.42L79.39 15.42L79.39 15.42Q78.29 14.99 76.96 14.99L76.96 14.99L66.88 14.99L66.88 31.06L76.96 31.06L76.96 31.06Q78.29 31.06 79.39 30.63L79.39 30.63L79.39 30.63Q80.49 30.20 81.28 29.42L81.28 29.42L81.28 29.42Q82.07 28.63 82.50 27.54L82.50 27.54L82.50 27.54Q82.93 26.44 82.93 25.08L82.93 25.08ZM111.92 22.92L111.92 22.92L111.92 22.92Q111.92 23.87 111.59 24.97L111.59 24.97L111.59 24.97Q111.25 26.07 110.50 27.01L110.50 27.01L110.50 27.01Q109.76 27.95 108.55 28.58L108.55 28.58L108.55 28.58Q107.35 29.21 105.63 29.21L105.63 29.21L97.38 29.21L97.38 24.87L105.63 24.87L105.63 24.87Q106.56 24.87 107.07 24.30L107.07 24.30L107.07 24.30Q107.58 23.73 107.58 22.89L107.58 22.89L107.58 22.89Q107.58 21.99 107.01 21.48L107.01 21.48L107.01 21.48Q106.44 20.97 105.63 20.97L105.63 20.97L97.38 20.97L97.38 20.97Q96.45 20.97 95.94 21.54L95.94 21.54L95.94 21.54Q95.43 22.11 95.43 22.96L95.43 22.96L95.43 29.34L95.43 29.34Q95.43 30.25 96.00 30.76L96.00 30.76L96.00 30.76Q96.57 31.27 97.42 31.27L97.42 31.27L105.63 31.27L105.63 35.63L97.38 35.63L97.38 35.63Q96.43 35.63 95.33 35.30L95.33 35.30L95.33 35.30Q94.24 34.96 93.30 34.22L93.30 34.22L93.30 34.22Q92.36 33.47 91.72 32.26L91.72 32.26L91.72 32.26Q91.09 31.06 91.09 29.34L91.09 29.34L91.09 22.92L91.09 22.92Q91.09 21.97 91.42 20.87L91.42 20.87L91.42 20.87Q91.76 19.78 92.50 18.83L92.50 18.83L92.50 18.83Q93.25 17.89 94.46 17.26L94.46 17.26L94.46 17.26Q95.66 16.63 97.38 16.63L97.38 16.63L105.63 16.63L105.63 16.63Q106.58 16.63 107.67 16.96L107.67 16.96L107.67 16.96Q108.77 17.30 109.71 18.04L109.71 18.04L109.71 18.04Q110.65 18.79 111.29 20.00L111.29 20.00L111.29 20.00Q111.92 21.20 111.92 22.92ZM132.82 16.63L137.67 16.63L137.67 16.63Q136.90 19.04 135.86 21.38L135.86 21.38L135.86 21.38Q134.82 23.71 133.48 25.83L133.48 25.83L133.48 25.83Q132.13 27.95 130.47 29.75L130.47 29.75L130.47 29.75Q128.81 31.55 126.80 32.86L126.80 32.86L126.80 32.86Q124.79 34.17 122.42 34.92L122.42 34.92L122.42 34.92Q120.06 35.67 117.30 35.67L117.30 35.67L117.30 35.67Q116.82 35.67 116.40 35.49L116.40 35.49L116.40 35.49Q115.98 35.31 115.66 35.01L115.66 35.01L115.66 35.01Q115.35 34.70 115.17 34.29L115.17 34.29L115.17 34.29Q115.00 33.87 115.00 33.40L115.00 33.40L115.00 16.63L119.57 16.63L119.57 30.92L119.57 30.92Q121.24 30.92 122.77 30.20L122.77 30.20L122.77 30.20Q124.31 29.48 125.68 28.29L125.68 28.29L125.68 28.29Q127.05 27.11 128.22 25.59L128.22 25.59L128.22 25.59Q129.39 24.08 130.31 22.49L130.31 22.49L130.31 22.49Q131.22 20.90 131.86 19.37L131.86 19.37L131.86 19.37Q132.50 17.84 132.82 16.63L132.82 16.63ZM159.75 22.92L159.75 22.92L159.75 22.92Q159.75 23.87 159.42 24.97L159.42 24.97L159.42 24.97Q159.08 26.07 158.33 27.01L158.33 27.01L158.33 27.01Q157.59 27.95 156.38 28.58L156.38 28.58L156.38 28.58Q155.18 29.21 153.46 29.21L153.46 29.21L145.21 29.21L145.21 24.87L153.46 24.87L153.46 24.87Q154.39 24.87 154.90 24.30L154.90 24.30L154.90 24.30Q155.41 23.73 155.41 22.89L155.41 22.89L155.41 22.89Q155.41 21.99 154.84 21.48L154.84 21.48L154.84 21.48Q154.27 20.97 153.46 20.97L153.46 20.97L145.21 20.97L145.21 20.97Q144.28 20.97 143.77 21.54L143.77 21.54L143.77 21.54Q143.26 22.11 143.26 22.96L143.26 22.96L143.26 29.34L143.26 29.34Q143.26 30.25 143.83 30.76L143.83 30.76L143.83 30.76Q144.40 31.27 145.25 31.27L145.25 31.27L153.46 31.27L153.46 35.63L145.21 35.63L145.21 35.63Q144.26 35.63 143.17 35.30L143.17 35.30L143.17 35.30Q142.07 34.96 141.13 34.22L141.13 34.22L141.13 34.22Q140.19 33.47 139.55 32.26L139.55 32.26L139.55 32.26Q138.92 31.06 138.92 29.34L138.92 29.34L138.92 22.92L138.92 22.92Q138.92 21.97 139.25 20.87L139.25 20.87L139.25 20.87Q139.59 19.78 140.33 18.83L140.33 18.83L140.33 18.83Q141.08 17.89 142.29 17.26L142.29 17.26L142.29 17.26Q143.49 16.63 145.21 16.63L145.21 16.63L153.46 16.63L153.46 16.63Q154.41 16.63 155.50 16.96L155.50 16.96L155.50 16.96Q156.60 17.30 157.54 18.04L157.54 18.04L157.54 18.04Q158.48 18.79 159.12 20.00L159.12 20.00L159.12 20.00Q159.75 21.20 159.75 22.92ZM171.18 31.06L171.18 35.63L169.14 35.63L169.14 35.63Q168.15 35.63 167.04 35.30L167.04 35.30L167.04 35.30Q165.92 34.96 164.95 34.20L164.95 34.20L164.95 34.20Q163.99 33.43 163.35 32.21L163.35 32.21L163.35 32.21Q162.72 30.99 162.72 29.21L162.72 29.21L162.72 8.60L167.29 8.60L167.29 29.21L167.29 29.21Q167.29 30.06 167.82 30.56L167.82 30.56L167.82 30.56Q168.35 31.06 169.14 31.06L169.14 31.06L171.18 31.06ZM194.78 23.03L194.78 29.21L194.78 29.21Q194.78 30.39 194.48 31.33L194.48 31.33L194.48 31.33Q194.19 32.27 193.69 32.99L193.69 32.99L193.69 32.99Q193.20 33.70 192.55 34.20L192.55 34.20L192.55 34.20Q191.90 34.70 191.19 35.02L191.19 35.02L191.19 35.02Q190.48 35.33 189.75 35.48L189.75 35.48L189.75 35.48Q189.02 35.63 188.37 35.63L188.37 35.63L180.12 35.63L180.12 35.63Q179.17 35.63 178.05 35.30L178.05 35.30L178.05 35.30Q176.92 34.96 175.97 34.20L175.97 34.20L175.97 34.20Q175.01 33.43 174.37 32.21L174.37 32.21L174.37 32.21Q173.72 30.99 173.72 29.21L173.72 29.21L173.72 23.03L173.72 23.03Q173.72 21.27 174.37 20.05L174.37 20.05L174.37 20.05Q175.01 18.83 175.97 18.06L175.97 18.06L175.97 18.06Q176.92 17.30 178.05 16.96L178.05 16.96L178.05 16.96Q179.17 16.63 180.12 16.63L180.12 16.63L188.37 16.63L188.37 16.63Q190.13 16.63 191.36 17.26L191.36 17.26L191.36 17.26Q192.59 17.89 193.34 18.85L193.34 18.85L193.34 18.85Q194.10 19.81 194.44 20.94L194.44 20.94L194.44 20.94Q194.78 22.06 194.78 23.03L194.78 23.03ZM190.21 29.21L190.21 23.06L190.21 23.06Q190.21 22.11 189.74 21.66L189.74 21.66L189.74 21.66Q189.26 21.20 188.37 21.20L188.37 21.20L180.16 21.20L180.16 21.20Q179.24 21.20 178.77 21.67L178.77 21.67L178.77 21.67Q178.29 22.13 178.29 23.03L178.29 23.03L178.29 29.21L178.29 29.21Q178.29 30.11 178.77 30.59L178.77 30.59L178.77 30.59Q179.24 31.06 180.16 31.06L180.16 31.06L188.37 31.06L188.37 31.06Q189.30 31.06 189.76 30.59L189.76 30.59L189.76 30.59Q190.21 30.11 190.21 29.21L190.21 29.21ZM219.62 23.03L219.62 29.21L219.62 29.21Q219.62 30.39 219.32 31.33L219.32 31.33L219.32 31.33Q219.02 32.27 218.53 32.99L218.53 32.99L218.53 32.99Q218.04 33.70 217.39 34.20L217.39 34.20L217.39 34.20Q216.74 34.70 216.03 35.02L216.03 35.02L216.03 35.02Q215.31 35.33 214.59 35.48L214.59 35.48L214.59 35.48Q213.87 35.63 213.22 35.63L213.22 35.63L204.98 35.63L204.98 31.06L213.22 31.06L213.22 31.06Q214.14 31.06 214.59 30.59L214.59 30.59L214.59 30.59Q215.05 30.11 215.05 29.21L215.05 29.21L215.05 23.06L215.05 23.06Q215.05 22.11 214.58 21.66L214.58 21.66L214.58 21.66Q214.12 21.20 213.22 21.20L213.22 21.20L205.01 21.20L205.01 21.20Q204.08 21.20 203.61 21.67L203.61 21.67L203.61 21.67Q203.13 22.13 203.13 23.03L203.13 23.03L203.13 41.57L198.56 41.57L198.56 23.03L198.56 23.03Q198.56 21.85 198.86 20.92L198.86 20.92L198.86 20.92Q199.16 19.99 199.66 19.27L199.66 19.27L199.66 19.27Q200.16 18.56 200.81 18.06L200.81 18.06L200.81 18.06Q201.46 17.56 202.17 17.24L202.17 17.24L202.17 17.24Q202.89 16.93 203.62 16.78L203.62 16.78L203.62 16.78Q204.35 16.63 204.98 16.63L204.98 16.63L213.22 16.63L213.22 16.63Q214.40 16.63 215.33 16.93L215.33 16.93L215.33 16.93Q216.26 17.23 216.98 17.72L216.98 17.72L216.98 17.72Q217.69 18.21 218.19 18.86L218.19 18.86L218.19 18.86Q218.69 19.51 219.01 20.22L219.01 20.22L219.01 20.22Q219.32 20.94 219.47 21.66L219.47 21.66L219.47 21.66Q219.62 22.38 219.62 23.03L219.62 23.03ZM243.97 22.92L243.97 22.92L243.97 22.92Q243.97 23.87 243.63 24.97L243.63 24.97L243.63 24.97Q243.30 26.07 242.55 27.01L242.55 27.01L242.55 27.01Q241.80 27.95 240.60 28.58L240.60 28.58L240.60 28.58Q239.40 29.21 237.67 29.21L237.67 29.21L229.43 29.21L229.43 24.87L237.67 24.87L237.67 24.87Q238.61 24.87 239.12 24.30L239.12 24.30L239.12 24.30Q239.63 23.73 239.63 22.89L239.63 22.89L239.63 22.89Q239.63 21.99 239.05 21.48L239.05 21.48L239.05 21.48Q238.48 20.97 237.67 20.97L237.67 20.97L229.43 20.97L229.43 20.97Q228.50 20.97 227.99 21.54L227.99 21.54L227.99 21.54Q227.48 22.11 227.48 22.96L227.48 22.96L227.48 29.34L227.48 29.34Q227.48 30.25 228.05 30.76L228.05 30.76L228.05 30.76Q228.62 31.27 229.46 31.27L229.46 31.27L237.67 31.27L237.67 35.63L229.43 35.63L229.43 35.63Q228.48 35.63 227.38 35.30L227.38 35.30L227.38 35.30Q226.28 34.96 225.34 34.22L225.34 34.22L225.34 34.22Q224.40 33.47 223.77 32.26L223.77 32.26L223.77 32.26Q223.14 31.06 223.14 29.34L223.14 29.34L223.14 22.92L223.14 22.92Q223.14 21.97 223.47 20.87L223.47 20.87L223.47 20.87Q223.80 19.78 224.55 18.83L224.55 18.83L224.55 18.83Q225.30 17.89 226.50 17.26L226.50 17.26L226.50 17.26Q227.71 16.63 229.43 16.63L229.43 16.63L237.67 16.63L237.67 16.63Q238.62 16.63 239.72 16.96L239.72 16.96L239.72 16.96Q240.82 17.30 241.76 18.04L241.76 18.04L241.76 18.04Q242.70 18.79 243.33 20.00L243.33 20.00L243.33 20.00Q243.97 21.20 243.97 22.92ZM263.67 16.63L263.67 21.20L253.39 21.20L253.39 21.20Q252.46 21.20 251.98 21.67L251.98 21.67L251.98 21.67Q251.51 22.13 251.51 23.03L251.51 23.03L251.51 35.63L246.94 35.63L246.94 23.03L246.94 23.03Q246.94 21.85 247.24 20.92L247.24 20.92L247.24 20.92Q247.54 19.99 248.04 19.27L248.04 19.27L248.04 19.27Q248.54 18.56 249.19 18.06L249.19 18.06L249.19 18.06Q249.84 17.56 250.55 17.24L250.55 17.24L250.55 17.24Q251.26 16.93 251.99 16.78L251.99 16.78L251.99 16.78Q252.72 16.63 253.35 16.63L253.35 16.63L263.67 16.63Z" transform="rotate(0 133.14500904083252 25.08500099182129)"></path><defs id="SvgjsDefs1010"></defs></svg></g><g id="SvgjsG1013" transform="rotate(0 130.515625 129.046875)"><svg xmlns="http://www.w3.org/2000/svg" xmlns:xlink="http://www.w3.org/1999/xlink" width="148.25" viewBox="0.5099999904632568 3.0199999809265137 148.260009765625 16.19999885559082" overflow="visible" style="overflow: visible;" transform="" version="1.1" xmlns:svgjs="http://svgjs.com/svgjs" preserveAspectRatio="none" height="16.1875" x="56.390625" y="120.953125" fill="#000000" stroke="none"><path stroke="none" fill="#8c8c8c" d="M1.55 3.69L3.76 12.51L4.13 14.39L4.59 12.59L7.21 3.69L8.13 3.69L10.72 12.59L11.17 14.40L11.57 12.51L13.75 3.69L14.80 3.69L11.70 15.77L10.72 15.77L7.99 6.32L7.68 5.12L7.38 6.32L4.57 15.77L3.59 15.77L0.51 3.69L1.55 3.69ZM20.76 15.94L20.76 15.94L20.76 15.94Q19.61 15.94 18.68 15.37L18.68 15.37L18.68 15.37Q17.76 14.81 17.24 13.80L17.24 13.80L17.24 13.80Q16.73 12.79 16.73 11.54L16.73 11.54L16.73 11.18L16.73 11.18Q16.73 9.89 17.23 8.85L17.23 8.85L17.23 8.85Q17.73 7.81 18.63 7.22L18.63 7.22L18.63 7.22Q19.53 6.62 20.57 6.62L20.57 6.62L20.57 6.62Q22.21 6.62 23.17 7.74L23.17 7.74L23.17 7.74Q24.13 8.86 24.13 10.79L24.13 10.79L24.13 11.35L17.72 11.35L17.72 11.54L17.72 11.54Q17.72 13.07 18.59 14.08L18.59 14.08L18.59 14.08Q19.47 15.10 20.80 15.10L20.80 15.10L20.80 15.10Q21.59 15.10 22.20 14.81L22.20 14.81L22.20 14.81Q22.81 14.52 23.31 13.88L23.31 13.88L23.94 14.35L23.94 14.35Q22.84 15.94 20.76 15.94ZM20.57 7.47L20.57 7.47L20.57 7.47Q19.45 7.47 18.68 8.29L18.68 8.29L18.68 8.29Q17.92 9.11 17.75 10.50L17.75 10.50L23.14 10.50L23.14 10.39L23.14 10.39Q23.10 9.10 22.40 8.28L22.40 8.28L22.40 8.28Q21.70 7.47 20.57 7.47ZM34.29 11.22L34.29 11.37L34.29 11.37Q34.29 13.47 33.36 14.70L33.36 14.70L33.36 14.70Q32.43 15.94 30.86 15.94L30.86 15.94L30.86 15.94Q28.99 15.94 28.02 14.54L28.02 14.54L27.98 15.77L27.05 15.77L27.05 3.02L28.04 3.02L28.04 8.09L28.04 8.09Q28.99 6.62 30.85 6.62L30.85 6.62L30.85 6.62Q32.44 6.62 33.36 7.84L33.36 7.84L33.36 7.84Q34.29 9.06 34.29 11.22L34.29 11.22ZM33.29 11.20L33.29 11.20L33.29 11.20Q33.29 9.42 32.60 8.45L32.60 8.45L32.60 8.45Q31.92 7.49 30.66 7.49L30.66 7.49L30.66 7.49Q29.71 7.49 29.04 7.96L29.04 7.96L29.04 7.96Q28.38 8.43 28.04 9.33L28.04 9.33L28.04 13.38L28.04 13.38Q28.79 15.07 30.68 15.07L30.68 15.07L30.68 15.07Q31.91 15.07 32.60 14.10L32.60 14.10L32.60 14.10Q33.29 13.13 33.29 11.20ZM46.15 15.77L42.85 15.77L42.85 3.69L46.23 3.69L46.23 3.69Q47.71 3.69 48.89 4.36L48.89 4.36L48.89 4.36Q50.07 5.04 50.73 6.30L50.73 6.30L50.73 6.30Q51.39 7.56 51.39 9.17L51.39 9.17L51.39 10.28L51.39 10.28Q51.39 11.90 50.73 13.16L50.73 13.16L50.73 13.16Q50.08 14.41 48.89 15.09L48.89 15.09L48.89 15.09Q47.70 15.77 46.15 15.77L46.15 15.77ZM46.24 4.56L43.87 4.56L43.87 14.91L46.16 14.91L46.16 14.91Q48.07 14.91 49.22 13.64L49.22 13.64L49.22 13.64Q50.38 12.38 50.38 10.22L50.38 10.22L50.38 9.16L50.38 9.16Q50.38 7.07 49.24 5.82L49.24 5.82L49.24 5.82Q48.10 4.57 46.24 4.56L46.24 4.56ZM58.22 15.94L58.22 15.94L58.22 15.94Q57.08 15.94 56.15 15.37L56.15 15.37L56.15 15.37Q55.23 14.81 54.71 13.80L54.71 13.80L54.71 13.80Q54.20 12.79 54.20 11.54L54.20 11.54L54.20 11.18L54.20 11.18Q54.20 9.89 54.70 8.85L54.70 8.85L54.70 8.85Q55.20 7.81 56.10 7.22L56.10 7.22L56.10 7.22Q57.00 6.62 58.04 6.62L58.04 6.62L58.04 6.62Q59.68 6.62 60.64 7.74L60.64 7.74L60.64 7.74Q61.59 8.86 61.59 10.79L61.59 10.79L61.59 11.35L55.19 11.35L55.19 11.54L55.19 11.54Q55.19 13.07 56.06 14.08L56.06 14.08L56.06 14.08Q56.94 15.10 58.27 15.10L58.27 15.10L58.27 15.10Q59.06 15.10 59.67 14.81L59.67 14.81L59.67 14.81Q60.28 14.52 60.78 13.88L60.78 13.88L61.40 14.35L61.40 14.35Q60.31 15.94 58.22 15.94ZM58.04 7.47L58.04 7.47L58.04 7.47Q56.92 7.47 56.15 8.29L56.15 8.29L56.15 8.29Q55.39 9.11 55.22 10.50L55.22 10.50L60.61 10.50L60.61 10.39L60.61 10.39Q60.57 9.10 59.87 8.28L59.87 8.28L59.87 8.28Q59.17 7.47 58.04 7.47ZM64.46 6.79L67.22 14.40L69.95 6.79L70.97 6.79L67.62 15.77L66.81 15.77L63.44 6.79L64.46 6.79ZM76.97 15.94L76.97 15.94L76.97 15.94Q75.82 15.94 74.90 15.37L74.90 15.37L74.90 15.37Q73.97 14.81 73.46 13.80L73.46 13.80L73.46 13.80Q72.94 12.79 72.94 11.54L72.94 11.54L72.94 11.18L72.94 11.18Q72.94 9.89 73.44 8.85L73.44 8.85L73.44 8.85Q73.95 7.81 74.84 7.22L74.84 7.22L74.84 7.22Q75.74 6.62 76.78 6.62L76.78 6.62L76.78 6.62Q78.42 6.62 79.38 7.74L79.38 7.74L79.38 7.74Q80.34 8.86 80.34 10.79L80.34 10.79L80.34 11.35L73.93 11.35L73.93 11.54L73.93 11.54Q73.93 13.07 74.80 14.08L74.80 14.08L74.80 14.08Q75.68 15.10 77.01 15.10L77.01 15.10L77.01 15.10Q77.81 15.10 78.42 14.81L78.42 14.81L78.42 14.81Q79.03 14.52 79.52 13.88L79.52 13.88L80.15 14.35L80.15 14.35Q79.05 15.94 76.97 15.94ZM76.78 7.47L76.78 7.47L76.78 7.47Q75.66 7.47 74.90 8.29L74.90 8.29L74.90 8.29Q74.13 9.11 73.96 10.50L73.96 10.50L79.35 10.50L79.35 10.39L79.35 10.39Q79.31 9.10 78.61 8.28L78.61 8.28L78.61 8.28Q77.91 7.47 76.78 7.47ZM84.38 3.02L84.38 15.77L83.39 15.77L83.39 3.02L84.38 3.02ZM87.53 11.35L87.53 11.15L87.53 11.15Q87.53 9.85 88.04 8.82L88.04 8.82L88.04 8.82Q88.54 7.78 89.46 7.20L89.46 7.20L89.46 7.20Q90.37 6.62 91.53 6.62L91.53 6.62L91.53 6.62Q93.33 6.62 94.44 7.88L94.44 7.88L94.44 7.88Q95.55 9.14 95.55 11.21L95.55 11.21L95.55 11.42L95.55 11.42Q95.55 12.73 95.05 13.77L95.05 13.77L95.05 13.77Q94.55 14.81 93.63 15.37L93.63 15.37L93.63 15.37Q92.72 15.94 91.55 15.94L91.55 15.94L91.55 15.94Q89.77 15.94 88.65 14.68L88.65 14.68L88.65 14.68Q87.53 13.42 87.53 11.35L87.53 11.35ZM88.53 11.24L88.53 11.42L88.53 11.42Q88.53 13.03 89.36 14.07L89.36 14.07L89.36 14.07Q90.20 15.10 91.55 15.10L91.55 15.10L91.55 15.10Q92.90 15.10 93.73 14.07L93.73 14.07L93.73 14.07Q94.56 13.03 94.56 11.34L94.56 11.34L94.56 11.15L94.56 11.15Q94.56 10.12 94.18 9.26L94.18 9.26L94.18 9.26Q93.80 8.41 93.11 7.94L93.11 7.94L93.11 7.94Q92.42 7.47 91.53 7.47L91.53 7.47L91.53 7.47Q90.21 7.47 89.37 8.51L89.37 8.51L89.37 8.51Q88.53 9.55 88.53 11.24L88.53 11.24ZM105.82 11.23L105.82 11.37L105.82 11.37Q105.82 13.47 104.89 14.70L104.89 14.70L104.89 14.70Q103.96 15.94 102.40 15.94L102.40 15.94L102.40 15.94Q100.56 15.94 99.58 14.64L99.58 14.64L99.58 19.22L98.59 19.22L98.59 6.79L99.52 6.79L99.57 8.06L99.57 8.06Q100.54 6.62 102.38 6.62L102.38 6.62L102.38 6.62Q103.99 6.62 104.91 7.84L104.91 7.84L104.91 7.84Q105.82 9.06 105.82 11.23L105.82 11.23ZM104.83 11.20L104.83 11.20L104.83 11.20Q104.83 9.48 104.12 8.48L104.12 8.48L104.12 8.48Q103.42 7.49 102.16 7.49L102.16 7.49L102.16 7.49Q101.24 7.49 100.59 7.93L100.59 7.93L100.59 7.93Q99.93 8.37 99.58 9.21L99.58 9.21L99.58 13.51L99.58 13.51Q99.94 14.29 100.60 14.69L100.60 14.69L100.60 14.69Q101.27 15.10 102.17 15.10L102.17 15.10L102.17 15.10Q103.43 15.10 104.13 14.10L104.13 14.10L104.13 14.10Q104.83 13.10 104.83 11.20ZM108.97 6.79L109.93 6.79L109.96 8.25L109.96 8.25Q110.46 7.44 111.21 7.03L111.21 7.03L111.21 7.03Q111.95 6.62 112.87 6.62L112.87 6.62L112.87 6.62Q114.99 6.62 115.56 8.37L115.56 8.37L115.56 8.37Q116.05 7.53 116.85 7.08L116.85 7.08L116.85 7.08Q117.66 6.62 118.63 6.62L118.63 6.62L118.63 6.62Q121.52 6.62 121.57 9.78L121.57 9.78L121.57 15.77L120.58 15.77L120.58 9.85L120.58 9.85Q120.57 8.65 120.06 8.07L120.06 8.07L120.06 8.07Q119.55 7.49 118.40 7.49L118.40 7.49L118.40 7.49Q117.32 7.50 116.59 8.18L116.59 8.18L116.59 8.18Q115.85 8.86 115.76 9.83L115.76 9.83L115.76 15.77L114.77 15.77L114.77 9.78L114.77 9.78Q114.76 8.62 114.22 8.06L114.22 8.06L114.22 8.06Q113.69 7.49 112.58 7.49L112.58 7.49L112.58 7.49Q111.64 7.49 110.97 8.02L110.97 8.02L110.97 8.02Q110.29 8.56 109.97 9.61L109.97 9.61L109.97 15.77L108.97 15.77L108.97 6.79ZM128.57 15.94L128.57 15.94L128.57 15.94Q127.42 15.94 126.50 15.37L126.50 15.37L126.50 15.37Q125.57 14.81 125.06 13.80L125.06 13.80L125.06 13.80Q124.54 12.79 124.54 11.54L124.54 11.54L124.54 11.18L124.54 11.18Q124.54 9.89 125.04 8.85L125.04 8.85L125.04 8.85Q125.55 7.81 126.44 7.22L126.44 7.22L126.44 7.22Q127.34 6.62 128.39 6.62L128.39 6.62L128.39 6.62Q130.02 6.62 130.98 7.74L130.98 7.74L130.98 7.74Q131.94 8.86 131.94 10.79L131.94 10.79L131.94 11.35L125.53 11.35L125.53 11.54L125.53 11.54Q125.53 13.07 126.41 14.08L126.41 14.08L126.41 14.08Q127.28 15.10 128.61 15.10L128.61 15.10L128.61 15.10Q129.41 15.10 130.02 14.81L130.02 14.81L130.02 14.81Q130.63 14.52 131.12 13.88L131.12 13.88L131.75 14.35L131.75 14.35Q130.65 15.94 128.57 15.94ZM128.39 7.47L128.39 7.47L128.39 7.47Q127.26 7.47 126.50 8.29L126.50 8.29L126.50 8.29Q125.73 9.11 125.56 10.50L125.56 10.50L130.95 10.50L130.95 10.39L130.95 10.39Q130.91 9.10 130.21 8.28L130.21 8.28L130.21 8.28Q129.51 7.47 128.39 7.47ZM134.87 6.79L135.82 6.79L135.85 8.33L135.85 8.33Q136.36 7.50 137.11 7.06L137.11 7.06L137.11 7.06Q137.87 6.62 138.78 6.62L138.78 6.62L138.78 6.62Q140.23 6.62 140.93 7.44L140.93 7.44L140.93 7.44Q141.64 8.25 141.65 9.88L141.65 9.88L141.65 15.77L140.66 15.77L140.66 9.87L140.66 9.87Q140.65 8.67 140.15 8.08L140.15 8.08L140.15 8.08Q139.65 7.49 138.54 7.49L138.54 7.49L138.54 7.49Q137.62 7.49 136.91 8.06L136.91 8.06L136.91 8.06Q136.20 8.64 135.86 9.62L135.86 9.62L135.86 15.77L134.87 15.77L134.87 6.79ZM145.76 4.49L146.75 4.49L146.75 6.79L148.61 6.79L148.61 7.60L146.75 7.60L146.75 13.59L146.75 13.59Q146.75 14.34 147.02 14.70L147.02 14.70L147.02 14.70Q147.29 15.07 147.92 15.07L147.92 15.07L147.92 15.07Q148.17 15.07 148.73 14.98L148.73 14.98L148.77 15.80L148.77 15.80Q148.38 15.94 147.71 15.94L147.71 15.94L147.71 15.94Q146.69 15.94 146.22 15.34L146.22 15.34L146.22 15.34Q145.76 14.75 145.76 13.60L145.76 13.60L145.76 7.60L144.11 7.60L144.11 6.79L145.76 6.79L145.76 4.49Z" transform="rotate(0 74.64000487327576 11.119999408721924)"></path><defs id="SvgjsDefs1012"></defs></svg></g></svg>